<svg width="512" height="512" viewBox="0 0 512 512" fill="none" xmlns="http://www.w3.org/2000/svg">
  <defs>
    <linearGradient id="bg" x1="80" y1="40" x2="440" y2="480" gradientUnits="userSpaceOnUse">
      <stop stop-color="#1B1F2A"/>
      <stop offset="1" stop-color="#0B0F19"/>
    </linearGradient>
    <linearGradient id="hair" x1="120" y1="110" x2="392" y2="430" gradientUnits="userSpaceOnUse">
      <stop stop-color="#2C211B"/>
      <stop offset="1" stop-color="#141016"/>
    </linearGradient>
    <linearGradient id="skin" x1="208" y1="160" x2="304" y2="332" gradientUnits="userSpaceOnUse">
      <stop stop-color="#F2B37E"/>
      <stop offset="1" stop-color="#E59555"/>
    </linearGradient>
    <linearGradient id="shirt" x1="206" y1="286" x2="306" y2="432" gradientUnits="userSpaceOnUse">
      <stop stop-color="#F7F1E8"/>
      <stop offset="1" stop-color="#E8D8C8"/>
    </linearGradient>
    <filter id="shadow" x="72" y="64" width="368" height="392" filterUnits="userSpaceOnUse" color-interpolation-filters="sRGB">
      <feDropShadow dx="0" dy="18" stdDeviation="18" flood-color="#000000" flood-opacity="0.35"/>
    </filter>
  </defs>

  <rect width="512" height="512" rx="48" fill="url(#bg)"/>
  <circle cx="256" cy="256" r="170" fill="#111827"/>
  <circle cx="328" cy="124" r="38" fill="#F59E0B" fill-opacity="0.12"/>
  <circle cx="156" cy="388" r="52" fill="#38BDF8" fill-opacity="0.08"/>

  <g filter="url(#shadow)">
    <path d="M152 180C164 122 212 90 256 90C309 90 360 126 373 189C383 239 363 286 325 320C310 333 303 347 301 367C299 386 287 398 256 398C225 398 213 386 211 367C209 347 202 333 187 320C148 285 139 236 152 180Z" fill="url(#hair)"/>
    <path d="M170 196C177 149 218 118 256 118C299 118 343 147 350 198C356 239 337 276 306 303C293 314 284 329 281 347C279 361 269 370 256 370C243 370 233 361 231 347C228 329 219 314 206 303C175 276 164 239 170 196Z" fill="url(#skin)"/>
    <path d="M196 195C203 168 226 150 256 150C286 150 309 168 316 195C321 213 321 236 315 252C307 275 288 291 256 291C224 291 205 275 197 252C191 236 191 213 196 195Z" fill="url(#skin)"/>
    <path d="M162 205C170 154 214 122 256 122C299 122 347 154 354 205C334 184 309 167 285 163C275 162 265 165 256 169C247 165 237 162 227 163C203 167 178 184 162 205Z" fill="#201815"/>
    <path d="M160 208C165 179 182 151 201 132C186 145 175 164 169 188C167 197 165 206 165 215C163 233 161 244 154 258C138 230 141 220 160 208Z" fill="#1D1613"/>
    <path d="M352 208C347 179 330 151 311 132C326 145 337 164 343 188C345 197 347 206 347 215C349 233 351 244 358 258C374 230 371 220 352 208Z" fill="#1D1613"/>
    <ellipse cx="236" cy="224" rx="12" ry="10" fill="#1A1A1A"/>
    <ellipse cx="278" cy="224" rx="12" ry="10" fill="#1A1A1A"/>
    <circle cx="240" cy="221" r="3" fill="#FFFFFF"/>
    <circle cx="282" cy="221" r="3" fill="#FFFFFF"/>
    <path d="M247 243C254 248 260 248 267 243" stroke="#7A3E23" stroke-width="4" stroke-linecap="round"/>
    <path d="M250 257C256 261 262 261 268 257" stroke="#B75D43" stroke-width="4" stroke-linecap="round"/>
    <path d="M194 306C204 287 221 276 239 273C248 271 252 280 256 280C260 280 264 271 273 273C291 276 308 287 318 306L338 346C322 360 299 369 256 369C213 369 190 360 174 346L194 306Z" fill="url(#shirt)"/>
    <path d="M186 326C192 308 203 295 218 287L230 369H182C176 368 172 362 173 356L186 326Z" fill="#1F2937"/>
    <path d="M326 326C320 308 309 295 294 287L282 369H330C336 368 340 362 339 356L326 326Z" fill="#1F2937"/>
    <path d="M231 279L256 316L281 279L256 265L231 279Z" fill="#F3E7DA"/>
    <path d="M252 267H260L268 307L256 324L244 307L252 267Z" fill="#E5C9AF"/>
    <path d="M170 332C168 323 170 316 177 311L187 305L187 346C180 344 173 339 170 332Z" fill="#111827"/>
    <path d="M342 332C344 323 342 316 335 311L325 305L325 346C332 344 339 339 342 332Z" fill="#111827"/>
  </g>

  <g opacity="0.85">
    <rect x="64" y="352" width="132" height="18" rx="9" fill="#7C3AED" fill-opacity="0.18"/>
    <text x="80" y="365" fill="#A5B4FC" font-family="Inter, Segoe UI, Arial, sans-serif" font-size="11" letter-spacing="1.2">CODE IS POETRY</text>
  </g>

  <g opacity="0.85">
    <rect x="332" y="70" width="116" height="18" rx="9" fill="#22D3EE" fill-opacity="0.14"/>
    <text x="346" y="83" fill="#67E8F9" font-family="Inter, Segoe UI, Arial, sans-serif" font-size="11" letter-spacing="1.2">BUILD WITH CLARITY</text>
  </g>
</svg>